<svg xmlns="http://www.w3.org/2000/svg" width="169" height="42" fill="none"><path fill="#252525" fill-opacity=".75" d="m142.648 9.765-4.284-6.018s-1.009 3.495-.207 8.915l3.125 1.912c.284-1.76.767-3.363 1.366-4.809Z"/><path fill="#252525" fill-opacity=".5" d="m138.157 12.662-5.324-3.26s.386 3.807 3.149 8.946l3.72.409a31.887 31.887 0 0 1-1.545-6.095Z"/><path fill="#252525" fill-opacity=".75" d="M141.08 18.908a11.204 11.204 0 0 1-.064-1.616c.033-.944.125-1.85.266-2.718l-3.125-1.912a31.888 31.888 0 0 0 1.545 6.095l1.378.151Z"/><path fill="#252525" fill-opacity=".25" d="M135.982 18.348 130 17.69s1.268 3.194 5.848 6.928l3.463-1.161a36.808 36.808 0 0 1-3.329-5.11Z"/><path fill="#252525" fill-opacity=".5" d="M141.421 22.748a35.472 35.472 0 0 1-1.719-3.992l-3.72-.408a36.808 36.808 0 0 0 3.329 5.109l2.11-.709Z"/><path fill="#252525" fill-opacity=".75" d="m141.08 18.908-1.378-.151a35.464 35.464 0 0 0 1.558 3.67l.16.322.568-.191c-.45-1.19-.773-2.417-.908-3.65Z"/><path fill="#252525" fill-opacity=".15" d="m135.848 24.618-4.925 1.654s2.596 2.62 8.883 4.004l1.799-1.842c-2.337-1.267-4.23-2.57-5.757-3.816Z"/><path fill="#252525" fill-opacity=".25" d="M142.707 27.306a40.51 40.51 0 0 1-3.396-3.85l-3.463 1.162c1.527 1.245 3.42 2.55 5.757 3.816l1.102-1.128Z"/><path fill="#252525" fill-opacity=".5" d="m141.421 22.748-2.11.709a40.523 40.523 0 0 0 3.396 3.85l.854-.875a35.317 35.317 0 0 1-2.14-3.684Z"/><path fill="#252525" fill-opacity=".75" d="M143.561 26.432c-.578-1.168-1.092-2.602-1.573-3.874l-.567.19c.661 1.318 1.353 2.59 2.14 3.684Z"/><path fill="#252525" fill-opacity=".15" d="M146.911 30.895a48.838 48.838 0 0 1-5.32-2.467l-1.798 1.843c2.067.454 4.677.794 7.582.845-.107-.065-.357-.152-.464-.221Z"/><path fill="#252525" fill-opacity=".25" d="m142.707 27.306-1.102 1.128a57.317 57.317 0 0 0 5.77 2.682c-.602-.39-1.219-.85-1.847-1.392-.848-.731-2.086-1.682-2.821-2.418Z"/><path fill="#252525" fill-opacity=".1" d="m139.793 30.27-3.878 3.97s3.876 1.33 10.871-.807c.136-.586.589-2.317.589-2.317-.047-.028-5.515-.39-7.582-.845Z"/><path fill="#252525" fill-opacity=".5" d="m143.561 26.432-.854.874a43.6 43.6 0 0 0 2.371 2.202c.628.543 2.183 1.563 2.297 1.608-.016-.019-2.572-2.82-3.814-4.684Z"/><path fill="#252525" d="M149.935 19.924 150.347 0s-5.017 3.308-7.699 9.765l7.287 10.16Z"/><path fill="#252525" d="m149.935 19.924-7.286-10.159a21.413 21.413 0 0 0-1.367 4.81l8.653 5.35Z"/><path fill="#252525" d="m149.935 19.924-8.653-5.35a21.65 21.65 0 0 0-.266 2.718c-.019.538.005 1.078.064 1.616l8.855 1.016Z"/><path fill="#252525" d="m149.935 19.924-8.855-1.016c.135 1.233.459 2.46.908 3.65l7.947-2.634Z"/><path fill="#252525" d="m149.935 19.924-7.947 2.634c.358 1.272.916 2.694 1.573 3.874l6.374-6.508Z"/><path fill="#252525" d="M157.31 14.042c-3.119-.507-6.317 1.448-7.105 4.508l-.27 1.374c-3.632 15.285-3.424 15.403-5.301 19.862-.232.552-1.137 2.106-1.137 2.106s6.695-3.58 8.678-5.137c2.685-2.106 5.082-4.684 5.416-7.981.341-3.372-.347-5.342-.706-7.673-.227-1.48.382-3.255.933-4.08.728-1.09 1.833-1.869 3.069-1.86 1.803.01 7.183.63 7.183.63l-10.76-1.75Z"/><path fill="#252525" d="M143.547 26.426c1.097 1.843 3.783 4.673 3.828 4.69l2.56-11.192-6.388 6.502ZM14.424 17.328h-1.776c-.208-2.464-2-3.696-5.376-3.696-1.424 0-2.576.264-3.456.792-.928.544-1.392 1.288-1.392 2.232 0 1.04.52 1.808 1.56 2.304.8.368 2.368.752 4.704 1.152 2 .336 3.432.744 4.296 1.224 1.296.736 1.944 1.84 1.944 3.312 0 1.92-.776 3.336-2.328 4.248C11.368 29.632 9.76 30 7.776 30 2.832 30 .24 27.968 0 23.904h1.776c.144 1.68.776 2.872 1.896 3.576.912.592 2.28.888 4.104.888 3.488 0 5.232-1.136 5.232-3.408 0-1.152-.648-1.992-1.944-2.52-.656-.256-2.088-.56-4.296-.912-2.144-.336-3.696-.832-4.656-1.488C1.04 19.32.504 18.296.504 16.968c0-1.728.712-3.024 2.136-3.888C3.84 12.36 5.384 12 7.272 12c2 0 3.616.376 4.848 1.128 1.488.912 2.256 2.312 2.304 4.2ZM19.151 23.328c0 1.536.472 2.776 1.416 3.72.944.944 2.24 1.416 3.888 1.416 1.648 0 2.944-.472 3.888-1.416s1.416-2.184 1.416-3.72-.472-2.776-1.416-3.72c-.944-.944-2.24-1.416-3.888-1.416-1.648 0-2.944.472-3.888 1.416s-1.416 2.184-1.416 3.72Zm-1.776 0c0-1.872.584-3.408 1.752-4.608 1.28-1.344 3.056-2.016 5.328-2.016 2.272 0 4.056.672 5.352 2.016 1.152 1.2 1.728 2.736 1.728 4.608 0 1.872-.576 3.408-1.728 4.608-1.296 1.344-3.08 2.016-5.352 2.016-2.272 0-4.048-.672-5.328-2.016-1.168-1.2-1.752-2.736-1.752-4.608ZM31.607 34.776v-1.488c.384.048.784.072 1.2.072.767 0 1.295-.16 1.584-.48.24-.272.36-.744.36-1.416V17.088h1.776v14.376c0 2.256-1.08 3.384-3.24 3.384l-1.68-.072Zm3.144-19.848v-2.64h1.776v2.64H34.75ZM41.509 23.328c0 1.536.472 2.776 1.416 3.72.944.944 2.24 1.416 3.888 1.416 1.648 0 2.944-.472 3.888-1.416s1.416-2.184 1.416-3.72-.472-2.776-1.416-3.72c-.944-.944-2.24-1.416-3.888-1.416-1.648 0-2.944.472-3.888 1.416s-1.416 2.184-1.416 3.72Zm-1.776 0c0-1.872.584-3.408 1.752-4.608 1.28-1.344 3.056-2.016 5.328-2.016 2.272 0 4.056.672 5.352 2.016 1.152 1.2 1.728 2.736 1.728 4.608 0 1.872-.576 3.408-1.728 4.608-1.296 1.344-3.08 2.016-5.352 2.016-2.272 0-4.048-.672-5.328-2.016-1.168-1.2-1.752-2.736-1.752-4.608ZM67.764 29.568V27.12h-.048c-.288.736-.872 1.376-1.752 1.92-.992.608-2.128.912-3.408.912-3.6 0-5.4-1.712-5.4-5.136v-7.728h1.776v8.04c0 2.224 1.256 3.336 3.768 3.336 3.376 0 5.064-1.536 5.064-4.608v-6.768h1.776v12.48h-1.776ZM73.233 29.568v-12.48h1.776v2.856h.048c.944-2.16 2.536-3.24 4.776-3.24.352 0 .704.032 1.056.096v1.824a9.374 9.374 0 0 0-1.632-.144c-1.136 0-2.08.344-2.832 1.032-.944.848-1.416 2.08-1.416 3.696v6.36h-1.776ZM93.684 29.568v-8.04c0-2.224-1.256-3.336-3.768-3.336-3.376 0-5.064 1.536-5.064 4.608v6.768h-1.776v-12.48h1.776v2.448h.048c.288-.736.872-1.376 1.752-1.92.992-.608 2.128-.912 3.408-.912 3.6 0 5.4 1.712 5.4 5.136v7.728h-1.776ZM100.497 22.416h10.272c-.24-1.44-.864-2.528-1.872-3.264-.88-.64-1.968-.96-3.264-.96-1.28 0-2.368.32-3.264.96-1.056.752-1.68 1.84-1.872 3.264Zm9.96 3.168h1.776c-.944 2.912-3.184 4.368-6.72 4.368-2.336 0-4.104-.72-5.304-2.16-.992-1.2-1.488-2.688-1.488-4.464 0-1.872.552-3.408 1.656-4.608 1.216-1.344 2.928-2.016 5.136-2.016 1.952 0 3.528.464 4.728 1.392 1.536 1.2 2.304 3.088 2.304 5.664h-12.048c0 1.344.44 2.448 1.32 3.312.928.928 2.16 1.392 3.696 1.392 1.44 0 2.56-.24 3.36-.72.736-.464 1.264-1.184 1.584-2.16ZM115.676 29.568v-12.48h1.776v2.856h.048c.944-2.16 2.536-3.24 4.776-3.24.352 0 .704.032 1.056.096v1.824a9.374 9.374 0 0 0-1.632-.144c-1.136 0-2.08.344-2.832 1.032-.944.848-1.416 2.08-1.416 3.696v6.36h-1.776Z"/></svg>